<?xml version="1.0" encoding="UTF-8" standalone="no"?>
<!DOCTYPE svg PUBLIC "-//W3C//DTD SVG 1.0//EN" "http://www.w3.org/TR/2001/REC-SVG-20010904/DTD/svg10.dtd">
<!-- Generated by Microsoft Visio 11.0, SVG Export, v1.0 Router.svg Page-1 -->
<svg xmlns="http://www.w3.org/2000/svg" xmlns:xlink="http://www.w3.org/1999/xlink" xmlns:ev="http://www.w3.org/2001/xml-events"
		xmlns:v="http://schemas.microsoft.com/visio/2003/SVGExtensions/" width="0.92313in" height="0.545911in"
		viewBox="0 0 66.4653 39.3056" xml:space="preserve" color-interpolation-filters="sRGB" class="st10">
	<v:documentProperties v:langID="1033" v:metric="true" v:viewMarkup="false"/>

	<style type="text/css">
	<![CDATA[
		.st1 {fill:#0078aa;stroke:none;stroke-linecap:round;stroke-linejoin:round;stroke-width:0.75}
		.st2 {stroke:#aae6ff;stroke-linecap:round;stroke-linejoin:round;stroke-width:0.375195}
		.st3 {fill:#00b4ff;stroke:none;stroke-linecap:round;stroke-linejoin:round;stroke-width:0.75}
		.st4 {fill:#000000;stroke:none;stroke-linecap:round;stroke-linejoin:round;stroke-width:0.75}
		.st5 {fill:#ffffff;stroke:none;stroke-linecap:round;stroke-linejoin:round;stroke-width:0.75}
		.st6 {fill:#e5405d;stroke:none;stroke-linecap:round;stroke-linejoin:round;stroke-width:0.75}
		.st7 {stroke:none;stroke-linecap:round;stroke-linejoin:round;stroke-width:0.75}
		.st8 {fill:#000000;font-family:Calibri;font-size:0.831253em;font-weight:bold}
		.st9 {fill:#ffffff;font-family:Calibri;font-size:0.831253em;font-weight:bold}
		.st10 {fill:none;fill-rule:evenodd;font-size:12px;overflow:visible;stroke-linecap:square;stroke-miterlimit:3}
	]]>
	</style>

	<g v:mID="0" v:index="1" v:groupContext="foregroundPage">
		<title>Page-1</title>
		<v:pageProperties v:drawingScale="0.0393701" v:pageScale="0.0393701" v:drawingUnits="24" v:shadowOffsetX="8.50394"
				v:shadowOffsetY="-8.50394"/>
		<g id="group5-1" transform="translate(0.375195,-0.375195)" v:mID="5" v:groupContext="group">
			<title>Sheet.5</title>
			<g id="shape6-2" v:mID="6" v:groupContext="shape" transform="translate(0.119945,7.10543E-015)">
				<title>Sheet.6</title>
				<path d="M32.8 16.77 C14.69 16.77 -0 21.82 0 28.04 C-0 34.27 14.69 39.31 32.8 39.31 C50.92 39.31 65.6 34.27 65.6
							 28.04 C65.6 21.82 50.92 16.77 32.8 16.77 Z" class="st1"/>
			</g>
			<g id="shape7-4" v:mID="7" v:groupContext="shape" transform="translate(0.119945,7.10543E-015)">
				<title>Sheet.7</title>
				<path d="M32.8 16.77 C14.69 16.77 -0 21.82 0 28.04 C-0 34.27 14.69 39.31 32.8 39.31 C50.92 39.31 65.6 34.27 65.6
							 28.04 C65.6 21.82 50.92 16.77 32.8 16.77" class="st2"/>
			</g>
			<g id="shape8-7" v:mID="8" v:groupContext="shape" transform="translate(1.19904E-014,-11.0115)">
				<title>Sheet.8</title>
				<path d="M0 23.28 L0 39.31 L65.47 39.31 L65.47 23.28 L0 23.28 L0 23.28 Z" class="st1"/>
			</g>
			<g id="shape9-9" v:mID="9" v:groupContext="shape" transform="translate(1.19904E-014,-11.0115)">
				<title>Sheet.9</title>
				<path d="M0 23.28 L0 39.31 L65.47 39.31 L65.47 23.28 L0 23.28 L0 23.28 Z" class="st1"/>
			</g>
			<g id="shape10-11" v:mID="10" v:groupContext="shape" transform="translate(0.119945,-16.0215)">
				<title>Sheet.10</title>
				<path d="M32.8 16.77 C14.69 16.77 -0 21.82 0 28.04 C-0 34.27 14.69 39.31 32.8 39.31 C50.92 39.31 65.6 34.27 65.6
							 28.04 C65.6 21.82 50.92 16.77 32.8 16.77 Z" class="st3"/>
			</g>
			<g id="shape11-13" v:mID="11" v:groupContext="shape" transform="translate(0.119945,-16.0215)">
				<title>Sheet.11</title>
				<path d="M32.8 16.77 C14.69 16.77 -0 21.82 0 28.04 C-0 34.27 14.69 39.31 32.8 39.31 C50.92 39.31 65.6 34.27 65.6
							 28.04 C65.6 21.82 50.92 16.77 32.8 16.77" class="st2"/>
			</g>
			<g id="shape12-16" v:mID="12" v:groupContext="shape" transform="translate(33.4797,-28.2873)">
				<title>Sheet.12</title>
				<path d="M0 37.68 L4.87 39.31 L16.37 34.54 L21.62 36.17 L18.74 32.17 L5.25 32.17 L10.87 33.3 L0 37.68 L0 37.68 Z"
						class="st4"/>
			</g>
			<g id="shape13-18" v:mID="13" v:groupContext="shape" transform="translate(33.4797,-28.2873)">
				<title>Sheet.13</title>
				<path d="M0 37.68 L4.87 39.31 L16.37 34.54 L21.62 36.17 L18.74 32.17 L5.25 32.17 L10.87 33.3 L0 37.68 L0 37.68 Z"
						class="st4"/>
			</g>
			<g id="shape14-20" v:mID="14" v:groupContext="shape" transform="translate(9.99293,-19.5292)">
				<title>Sheet.14</title>
				<path d="M21.49 33.3 L16.74 31.79 L5.62 36.56 L0 34.93 L2.75 39.31 L16.74 39.31 L10.74 37.8 L21.49 33.3 L21.49 33.3
							 Z" class="st4"/>
			</g>
			<g id="shape15-22" v:mID="15" v:groupContext="shape" transform="translate(9.99293,-19.5292)">
				<title>Sheet.15</title>
				<path d="M21.49 33.3 L16.74 31.79 L5.62 36.56 L0 34.93 L2.75 39.31 L16.74 39.31 L10.74 37.8 L21.49 33.3 L21.49 33.3
							 Z" class="st4"/>
			</g>
			<g id="shape16-24" v:mID="16" v:groupContext="shape" transform="translate(11.1174,-28.6629)">
				<title>Sheet.16</title>
				<path d="M0 33.67 L4.87 32.04 L16.37 36.55 L21.61 35.29 L18.87 39.31 L5.25 39.31 L10.87 38.05 L0 33.67 L0 33.67 Z"
						class="st4"/>
			</g>
			<g id="shape17-26" v:mID="17" v:groupContext="shape" transform="translate(11.1174,-28.6629)">
				<title>Sheet.17</title>
				<path d="M0 33.67 L4.87 32.04 L16.37 36.55 L21.61 35.29 L18.87 39.31 L5.25 39.31 L10.87 38.05 L0 33.67 L0 33.67 Z"
						class="st4"/>
			</g>
			<g id="shape18-28" v:mID="18" v:groupContext="shape" transform="translate(32.73,-19.026)">
				<title>Sheet.18</title>
				<path d="M21.49 37.68 L16.75 39.31 L5.62 34.42 L0 36.05 L2.75 32.04 L16.75 32.04 L10.75 33.3 L21.49 37.68 L21.49
							 37.68 Z" class="st4"/>
			</g>
			<g id="shape19-30" v:mID="19" v:groupContext="shape" transform="translate(32.73,-19.026)">
				<title>Sheet.19</title>
				<path d="M21.49 37.68 L16.75 39.31 L5.62 34.42 L0 36.05 L2.75 32.04 L16.75 32.04 L10.75 33.3 L21.49 37.68 L21.49
							 37.68 Z" class="st4"/>
			</g>
			<g id="shape20-32" v:mID="20" v:groupContext="shape" transform="translate(33.8545,-27.9117)">
				<title>Sheet.20</title>
				<path d="M0 37.8 L4.87 39.31 L16.37 34.54 L21.62 36.17 L18.87 32.17 L5.25 32.17 L10.87 33.3 L0 37.8 L0 37.8 Z"
						class="st5"/>
			</g>
			<g id="shape21-34" v:mID="21" v:groupContext="shape" transform="translate(33.8545,-27.9117)">
				<title>Sheet.21</title>
				<path d="M0 37.8 L4.87 39.31 L16.37 34.54 L21.62 36.17 L18.87 32.17 L5.25 32.17 L10.87 33.3 L0 37.8 L0 37.8 Z"
						class="st5"/>
			</g>
			<g id="shape22-36" v:mID="22" v:groupContext="shape" transform="translate(10.3678,-19.026)">
				<title>Sheet.22</title>
				<path d="M21.61 33.3 L16.74 31.67 L5.62 36.43 L0 34.8 L2.75 39.31 L16.74 39.31 L10.74 37.68 L21.61 33.3 L21.61 33.3
							 Z" class="st5"/>
			</g>
			<g id="shape23-38" v:mID="23" v:groupContext="shape" transform="translate(10.3678,-19.026)">
				<title>Sheet.23</title>
				<path d="M21.61 33.3 L16.74 31.67 L5.62 36.43 L0 34.8 L2.75 39.31 L16.74 39.31 L10.74 37.68 L21.61 33.3 L21.61 33.3
							 Z" class="st5"/>
			</g>
			<g id="shape24-40" v:mID="24" v:groupContext="shape" transform="translate(11.6197,-28.2873)">
				<title>Sheet.24</title>
				<path d="M0 33.67 L4.75 32.17 L16.37 36.55 L21.49 35.29 L18.74 39.31 L5.12 39.31 L10.74 38.18 L0 33.67 L0 33.67 Z"
						class="st5"/>
			</g>
			<g id="shape25-42" v:mID="25" v:groupContext="shape" transform="translate(11.6197,-28.2873)">
				<title>Sheet.25</title>
				<path d="M0 33.67 L4.75 32.17 L16.37 36.55 L21.49 35.29 L18.74 39.31 L5.12 39.31 L10.74 38.18 L0 33.67 L0 33.67 Z"
						class="st5"/>
			</g>
			<g id="shape26-44" v:mID="26" v:groupContext="shape" transform="translate(33.1049,-18.6504)">
				<title>Sheet.26</title>
				<path d="M21.62 37.68 L16.75 39.31 L5.62 34.42 L0 36.05 L2.75 32.04 L16.75 32.04 L10.75 33.3 L21.62 37.68 L21.62
							 37.68 Z" class="st5"/>
			</g>
			<g id="shape27-46" v:mID="27" v:groupContext="shape" transform="translate(33.1049,-18.6504)">
				<title>Sheet.27</title>
				<path d="M21.62 37.68 L16.75 39.31 L5.62 34.42 L0 36.05 L2.75 32.04 L16.75 32.04 L10.75 33.3 L21.62 37.68 L21.62
							 37.68 Z" class="st5"/>
			</g>
			<g id="shape28-48" v:mID="28" v:groupContext="shape" transform="translate(-3.9968E-015,-11.5147)">
				<title>Sheet.28</title>
				<path d="M0 23.28 L0.12 39.31" class="st2"/>
			</g>
			<g id="shape29-51" v:mID="29" v:groupContext="shape" transform="translate(65.4676,-11.5147)">
				<title>Sheet.29</title>
				<path d="M0 23.28 L0.13 39.31" class="st2"/>
			</g>
			<g id="shape30-54" v:mID="30" v:groupContext="shape" transform="translate(25.9831,-1.87781)">
				<title>Sheet.30</title>
				<path d="M6.56 26.16 C2.94 26.16 0 29.11 0 32.73 C0 36.37 2.94 39.31 6.56 39.31 C10.19 39.31 13.12 36.37 13.12 32.73
							 C13.12 29.11 10.19 26.16 6.56 26.16 Z" class="st4"/>
			</g>
			<g id="shape31-56" v:mID="31" v:groupContext="shape" transform="translate(26.7328,-1.12669)">
				<title>Sheet.31</title>
				<path d="M6.56 26.16 C2.94 26.16 0 29.11 0 32.73 C0 36.37 2.94 39.31 6.56 39.31 C10.19 39.31 13.12 36.37 13.12 32.73
							 C13.12 29.11 10.19 26.16 6.56 26.16 Z" class="st5"/>
			</g>
			<g id="shape32-58" v:mID="32" v:groupContext="shape" transform="translate(26.3579,-1.50225)">
				<title>Sheet.32</title>
				<path d="M6.56 26.16 C2.94 26.16 0 29.11 0 32.73 C0 36.37 2.94 39.31 6.56 39.31 C10.19 39.31 13.12 36.37 13.12 32.73
							 C13.12 29.11 10.19 26.16 6.56 26.16 Z" class="st6"/>
			</g>
			<g id="shape33-60" v:mID="33" v:groupContext="shape" transform="translate(28.8468,-1.25795)">
				<title>Sheet.33</title>
				<desc>Si</desc>
				<v:textBlock v:margins="rect(0,0,0,0)"/>
				<v:textRect cx="7.01473" cy="33.3187" width="14.03" height="11.9736"/>
				<path d="M14.03 27.33 L0 27.33 L0 39.31 L14.03 39.31 L14.03 27.33" class="st7"/>
				<text x="3.43" y="36.31" class="st8" v:langID="1033"><v:paragraph v:horizAlign="1"/><v:tabList/>Si</text>			</g>
			<g id="shape34-64" v:mID="34" v:groupContext="shape" transform="translate(28.367,-1.73867)">
				<title>Sheet.34</title>
				<desc>Si</desc>
				<v:textBlock v:margins="rect(0,0,0,0)"/>
				<v:textRect cx="7.01473" cy="33.3187" width="14.03" height="11.9736"/>
				<path d="M14.03 27.33 L0 27.33 L0 39.31 L14.03 39.31 L14.03 27.33" class="st7"/>
				<text x="3.43" y="36.31" class="st9" v:langID="1033"><v:paragraph v:horizAlign="1"/><v:tabList/>Si</text>			</g>
			<g id="shape35-68" v:mID="35" v:groupContext="shape" transform="translate(0.119945,7.10543E-015)">
				<title>Sheet.35</title>
				<path d="M32.8 16.77 C14.69 16.77 -0 21.82 0 28.04 C-0 34.27 14.69 39.31 32.8 39.31 C50.92 39.31 65.6 34.27 65.6
							 28.04 C65.6 21.82 50.92 16.77 32.8 16.77 Z" class="st1"/>
			</g>
			<g id="shape36-70" v:mID="36" v:groupContext="shape" transform="translate(0.119945,7.10543E-015)">
				<title>Sheet.36</title>
				<path d="M32.8 16.77 C14.69 16.77 -0 21.82 0 28.04 C-0 34.27 14.69 39.31 32.8 39.31 C50.92 39.31 65.6 34.27 65.6
							 28.04 C65.6 21.82 50.92 16.77 32.8 16.77" class="st2"/>
			</g>
			<g id="shape37-73" v:mID="37" v:groupContext="shape" transform="translate(1.19904E-014,-11.0115)">
				<title>Sheet.37</title>
				<path d="M0 23.28 L0 39.31 L65.47 39.31 L65.47 23.28 L0 23.28 L0 23.28 Z" class="st1"/>
			</g>
			<g id="shape38-75" v:mID="38" v:groupContext="shape" transform="translate(1.19904E-014,-11.0115)">
				<title>Sheet.38</title>
				<path d="M0 23.28 L0 39.31 L65.47 39.31 L65.47 23.28 L0 23.28 L0 23.28 Z" class="st1"/>
			</g>
			<g id="shape39-77" v:mID="39" v:groupContext="shape" transform="translate(0.119945,-16.0215)">
				<title>Sheet.39</title>
				<path d="M32.8 16.77 C14.69 16.77 -0 21.82 0 28.04 C-0 34.27 14.69 39.31 32.8 39.31 C50.92 39.31 65.6 34.27 65.6
							 28.04 C65.6 21.82 50.92 16.77 32.8 16.77 Z" class="st3"/>
			</g>
			<g id="shape40-79" v:mID="40" v:groupContext="shape" transform="translate(0.119945,-16.0215)">
				<title>Sheet.40</title>
				<path d="M32.8 16.77 C14.69 16.77 -0 21.82 0 28.04 C-0 34.27 14.69 39.31 32.8 39.31 C50.92 39.31 65.6 34.27 65.6
							 28.04 C65.6 21.82 50.92 16.77 32.8 16.77" class="st2"/>
			</g>
			<g id="shape41-82" v:mID="41" v:groupContext="shape" transform="translate(33.4797,-28.2873)">
				<title>Sheet.41</title>
				<path d="M0 37.68 L4.87 39.31 L16.37 34.54 L21.62 36.17 L18.74 32.17 L5.25 32.17 L10.87 33.3 L0 37.68 L0 37.68 Z"
						class="st4"/>
			</g>
			<g id="shape42-84" v:mID="42" v:groupContext="shape" transform="translate(33.4797,-28.2873)">
				<title>Sheet.42</title>
				<path d="M0 37.68 L4.87 39.31 L16.37 34.54 L21.62 36.17 L18.74 32.17 L5.25 32.17 L10.87 33.3 L0 37.68 L0 37.68 Z"
						class="st4"/>
			</g>
			<g id="shape43-86" v:mID="43" v:groupContext="shape" transform="translate(9.99293,-19.5292)">
				<title>Sheet.43</title>
				<path d="M21.49 33.3 L16.74 31.79 L5.62 36.56 L0 34.93 L2.75 39.31 L16.74 39.31 L10.74 37.8 L21.49 33.3 L21.49 33.3
							 Z" class="st4"/>
			</g>
			<g id="shape44-88" v:mID="44" v:groupContext="shape" transform="translate(9.99293,-19.5292)">
				<title>Sheet.44</title>
				<path d="M21.49 33.3 L16.74 31.79 L5.62 36.56 L0 34.93 L2.75 39.31 L16.74 39.31 L10.74 37.8 L21.49 33.3 L21.49 33.3
							 Z" class="st4"/>
			</g>
			<g id="shape45-90" v:mID="45" v:groupContext="shape" transform="translate(11.1174,-28.6629)">
				<title>Sheet.45</title>
				<path d="M0 33.67 L4.87 32.04 L16.37 36.55 L21.61 35.29 L18.87 39.31 L5.25 39.31 L10.87 38.05 L0 33.67 L0 33.67 Z"
						class="st4"/>
			</g>
			<g id="shape46-92" v:mID="46" v:groupContext="shape" transform="translate(11.1174,-28.6629)">
				<title>Sheet.46</title>
				<path d="M0 33.67 L4.87 32.04 L16.37 36.55 L21.61 35.29 L18.87 39.31 L5.25 39.31 L10.87 38.05 L0 33.67 L0 33.67 Z"
						class="st4"/>
			</g>
			<g id="shape47-94" v:mID="47" v:groupContext="shape" transform="translate(32.73,-19.026)">
				<title>Sheet.47</title>
				<path d="M21.49 37.68 L16.75 39.31 L5.62 34.42 L0 36.05 L2.75 32.04 L16.75 32.04 L10.75 33.3 L21.49 37.68 L21.49
							 37.68 Z" class="st4"/>
			</g>
			<g id="shape48-96" v:mID="48" v:groupContext="shape" transform="translate(32.73,-19.026)">
				<title>Sheet.48</title>
				<path d="M21.49 37.68 L16.75 39.31 L5.62 34.42 L0 36.05 L2.75 32.04 L16.75 32.04 L10.75 33.3 L21.49 37.68 L21.49
							 37.68 Z" class="st4"/>
			</g>
			<g id="shape49-98" v:mID="49" v:groupContext="shape" transform="translate(33.8545,-27.9117)">
				<title>Sheet.49</title>
				<path d="M0 37.8 L4.87 39.31 L16.37 34.54 L21.62 36.17 L18.87 32.17 L5.25 32.17 L10.87 33.3 L0 37.8 L0 37.8 Z"
						class="st5"/>
			</g>
			<g id="shape50-100" v:mID="50" v:groupContext="shape" transform="translate(33.8545,-27.9117)">
				<title>Sheet.50</title>
				<path d="M0 37.8 L4.87 39.31 L16.37 34.54 L21.62 36.17 L18.87 32.17 L5.25 32.17 L10.87 33.3 L0 37.8 L0 37.8 Z"
						class="st5"/>
			</g>
			<g id="shape51-102" v:mID="51" v:groupContext="shape" transform="translate(10.3678,-19.026)">
				<title>Sheet.51</title>
				<path d="M21.61 33.3 L16.74 31.67 L5.62 36.43 L0 34.8 L2.75 39.31 L16.74 39.31 L10.74 37.68 L21.61 33.3 L21.61 33.3
							 Z" class="st5"/>
			</g>
			<g id="shape52-104" v:mID="52" v:groupContext="shape" transform="translate(10.3678,-19.026)">
				<title>Sheet.52</title>
				<path d="M21.61 33.3 L16.74 31.67 L5.62 36.43 L0 34.8 L2.75 39.31 L16.74 39.31 L10.74 37.68 L21.61 33.3 L21.61 33.3
							 Z" class="st5"/>
			</g>
			<g id="shape53-106" v:mID="53" v:groupContext="shape" transform="translate(11.6197,-28.2873)">
				<title>Sheet.53</title>
				<path d="M0 33.67 L4.75 32.17 L16.37 36.55 L21.49 35.29 L18.74 39.31 L5.12 39.31 L10.74 38.18 L0 33.67 L0 33.67 Z"
						class="st5"/>
			</g>
			<g id="shape54-108" v:mID="54" v:groupContext="shape" transform="translate(11.6197,-28.2873)">
				<title>Sheet.54</title>
				<path d="M0 33.67 L4.75 32.17 L16.37 36.55 L21.49 35.29 L18.74 39.31 L5.12 39.31 L10.74 38.18 L0 33.67 L0 33.67 Z"
						class="st5"/>
			</g>
			<g id="shape55-110" v:mID="55" v:groupContext="shape" transform="translate(33.1049,-18.6504)">
				<title>Sheet.55</title>
				<path d="M21.62 37.68 L16.75 39.31 L5.62 34.42 L0 36.05 L2.75 32.04 L16.75 32.04 L10.75 33.3 L21.62 37.68 L21.62
							 37.68 Z" class="st5"/>
			</g>
			<g id="shape56-112" v:mID="56" v:groupContext="shape" transform="translate(33.1049,-18.6504)">
				<title>Sheet.56</title>
				<path d="M21.62 37.68 L16.75 39.31 L5.62 34.42 L0 36.05 L2.75 32.04 L16.75 32.04 L10.75 33.3 L21.62 37.68 L21.62
							 37.68 Z" class="st5"/>
			</g>
			<g id="shape57-114" v:mID="57" v:groupContext="shape" transform="translate(-3.9968E-015,-11.5147)">
				<title>Sheet.57</title>
				<path d="M0 23.28 L0.12 39.31" class="st2"/>
			</g>
			<g id="shape58-117" v:mID="58" v:groupContext="shape" transform="translate(65.4676,-11.5147)">
				<title>Sheet.58</title>
				<path d="M0 23.28 L0.13 39.31" class="st2"/>
			</g>
			<g id="shape59-120" v:mID="59" v:groupContext="shape" transform="translate(0.119945,7.10543E-015)">
				<title>Sheet.59</title>
				<path d="M32.8 16.77 C14.69 16.77 -0 21.82 0 28.04 C-0 34.27 14.69 39.31 32.8 39.31 C50.92 39.31 65.6 34.27 65.6
							 28.04 C65.6 21.82 50.92 16.77 32.8 16.77 Z" class="st1"/>
			</g>
			<g id="shape60-122" v:mID="60" v:groupContext="shape" transform="translate(0.119945,7.10543E-015)">
				<title>Sheet.60</title>
				<path d="M32.8 16.77 C14.69 16.77 -0 21.82 0 28.04 C-0 34.27 14.69 39.31 32.8 39.31 C50.92 39.31 65.6 34.27 65.6
							 28.04 C65.6 21.82 50.92 16.77 32.8 16.77" class="st2"/>
			</g>
			<g id="shape61-125" v:mID="61" v:groupContext="shape" transform="translate(1.19904E-014,-11.0115)">
				<title>Sheet.61</title>
				<path d="M0 23.28 L0 39.31 L65.47 39.31 L65.47 23.28 L0 23.28 L0 23.28 Z" class="st1"/>
			</g>
			<g id="shape62-127" v:mID="62" v:groupContext="shape" transform="translate(1.19904E-014,-11.0115)">
				<title>Sheet.62</title>
				<path d="M0 23.28 L0 39.31 L65.47 39.31 L65.47 23.28 L0 23.28 L0 23.28 Z" class="st1"/>
			</g>
			<g id="shape63-129" v:mID="63" v:groupContext="shape" transform="translate(0.119945,-16.0215)">
				<title>Sheet.63</title>
				<path d="M32.8 16.77 C14.69 16.77 -0 21.82 0 28.04 C-0 34.27 14.69 39.31 32.8 39.31 C50.92 39.31 65.6 34.27 65.6
							 28.04 C65.6 21.82 50.92 16.77 32.8 16.77 Z" class="st3"/>
			</g>
			<g id="shape64-131" v:mID="64" v:groupContext="shape" transform="translate(0.119945,-16.0215)">
				<title>Sheet.64</title>
				<path d="M32.8 16.77 C14.69 16.77 -0 21.82 0 28.04 C-0 34.27 14.69 39.31 32.8 39.31 C50.92 39.31 65.6 34.27 65.6
							 28.04 C65.6 21.82 50.92 16.77 32.8 16.77" class="st2"/>
			</g>
			<g id="shape65-134" v:mID="65" v:groupContext="shape" transform="translate(33.4797,-28.2873)">
				<title>Sheet.65</title>
				<path d="M0 37.68 L4.87 39.31 L16.37 34.54 L21.62 36.17 L18.74 32.17 L5.25 32.17 L10.87 33.3 L0 37.68 L0 37.68 Z"
						class="st4"/>
			</g>
			<g id="shape66-136" v:mID="66" v:groupContext="shape" transform="translate(33.4797,-28.2873)">
				<title>Sheet.66</title>
				<path d="M0 37.68 L4.87 39.31 L16.37 34.54 L21.62 36.17 L18.74 32.17 L5.25 32.17 L10.87 33.3 L0 37.68 L0 37.68 Z"
						class="st4"/>
			</g>
			<g id="shape67-138" v:mID="67" v:groupContext="shape" transform="translate(9.99293,-19.5292)">
				<title>Sheet.67</title>
				<path d="M21.49 33.3 L16.74 31.79 L5.62 36.56 L0 34.93 L2.75 39.31 L16.74 39.31 L10.74 37.8 L21.49 33.3 L21.49 33.3
							 Z" class="st4"/>
			</g>
			<g id="shape68-140" v:mID="68" v:groupContext="shape" transform="translate(9.99293,-19.5292)">
				<title>Sheet.68</title>
				<path d="M21.49 33.3 L16.74 31.79 L5.62 36.56 L0 34.93 L2.75 39.31 L16.74 39.31 L10.74 37.8 L21.49 33.3 L21.49 33.3
							 Z" class="st4"/>
			</g>
			<g id="shape69-142" v:mID="69" v:groupContext="shape" transform="translate(11.1174,-28.6629)">
				<title>Sheet.69</title>
				<path d="M0 33.67 L4.87 32.04 L16.37 36.55 L21.61 35.29 L18.87 39.31 L5.25 39.31 L10.87 38.05 L0 33.67 L0 33.67 Z"
						class="st4"/>
			</g>
			<g id="shape70-144" v:mID="70" v:groupContext="shape" transform="translate(11.1174,-28.6629)">
				<title>Sheet.70</title>
				<path d="M0 33.67 L4.87 32.04 L16.37 36.55 L21.61 35.29 L18.87 39.31 L5.25 39.31 L10.87 38.05 L0 33.67 L0 33.67 Z"
						class="st4"/>
			</g>
			<g id="shape71-146" v:mID="71" v:groupContext="shape" transform="translate(32.73,-19.026)">
				<title>Sheet.71</title>
				<path d="M21.49 37.68 L16.75 39.31 L5.62 34.42 L0 36.05 L2.75 32.04 L16.75 32.04 L10.75 33.3 L21.49 37.68 L21.49
							 37.68 Z" class="st4"/>
			</g>
			<g id="shape72-148" v:mID="72" v:groupContext="shape" transform="translate(32.73,-19.026)">
				<title>Sheet.72</title>
				<path d="M21.49 37.68 L16.75 39.31 L5.62 34.42 L0 36.05 L2.75 32.04 L16.75 32.04 L10.75 33.3 L21.49 37.68 L21.49
							 37.68 Z" class="st4"/>
			</g>
			<g id="shape73-150" v:mID="73" v:groupContext="shape" transform="translate(33.8545,-27.9117)">
				<title>Sheet.73</title>
				<path d="M0 37.8 L4.87 39.31 L16.37 34.54 L21.62 36.17 L18.87 32.17 L5.25 32.17 L10.87 33.3 L0 37.8 L0 37.8 Z"
						class="st5"/>
			</g>
			<g id="shape74-152" v:mID="74" v:groupContext="shape" transform="translate(33.8545,-27.9117)">
				<title>Sheet.74</title>
				<path d="M0 37.8 L4.87 39.31 L16.37 34.54 L21.62 36.17 L18.87 32.17 L5.25 32.17 L10.87 33.3 L0 37.8 L0 37.8 Z"
						class="st5"/>
			</g>
			<g id="shape75-154" v:mID="75" v:groupContext="shape" transform="translate(10.3678,-19.026)">
				<title>Sheet.75</title>
				<path d="M21.61 33.3 L16.74 31.67 L5.62 36.43 L0 34.8 L2.75 39.31 L16.74 39.31 L10.74 37.68 L21.61 33.3 L21.61 33.3
							 Z" class="st5"/>
			</g>
			<g id="shape76-156" v:mID="76" v:groupContext="shape" transform="translate(10.3678,-19.026)">
				<title>Sheet.76</title>
				<path d="M21.61 33.3 L16.74 31.67 L5.62 36.43 L0 34.8 L2.75 39.31 L16.74 39.31 L10.74 37.68 L21.61 33.3 L21.61 33.3
							 Z" class="st5"/>
			</g>
			<g id="shape77-158" v:mID="77" v:groupContext="shape" transform="translate(11.6197,-28.2873)">
				<title>Sheet.77</title>
				<path d="M0 33.67 L4.75 32.17 L16.37 36.55 L21.49 35.29 L18.74 39.31 L5.12 39.31 L10.74 38.18 L0 33.67 L0 33.67 Z"
						class="st5"/>
			</g>
			<g id="shape78-160" v:mID="78" v:groupContext="shape" transform="translate(11.6197,-28.2873)">
				<title>Sheet.78</title>
				<path d="M0 33.67 L4.75 32.17 L16.37 36.55 L21.49 35.29 L18.74 39.31 L5.12 39.31 L10.74 38.18 L0 33.67 L0 33.67 Z"
						class="st5"/>
			</g>
			<g id="shape79-162" v:mID="79" v:groupContext="shape" transform="translate(33.1049,-18.6504)">
				<title>Sheet.79</title>
				<path d="M21.62 37.68 L16.75 39.31 L5.62 34.42 L0 36.05 L2.75 32.04 L16.75 32.04 L10.75 33.3 L21.62 37.68 L21.62
							 37.68 Z" class="st5"/>
			</g>
			<g id="shape80-164" v:mID="80" v:groupContext="shape" transform="translate(33.1049,-18.6504)">
				<title>Sheet.80</title>
				<path d="M21.62 37.68 L16.75 39.31 L5.62 34.42 L0 36.05 L2.75 32.04 L16.75 32.04 L10.75 33.3 L21.62 37.68 L21.62
							 37.68 Z" class="st5"/>
			</g>
			<g id="shape81-166" v:mID="81" v:groupContext="shape" transform="translate(33.4797,-28.2873)">
				<title>Sheet.81</title>
				<path d="M0 37.68 L4.87 39.31 L16.37 34.54 L21.62 36.17 L18.74 32.17 L5.25 32.17 L10.87 33.3 L0 37.68 L0 37.68 Z"
						class="st4"/>
			</g>
			<g id="shape82-168" v:mID="82" v:groupContext="shape" transform="translate(33.4797,-28.2873)">
				<title>Sheet.82</title>
				<path d="M0 37.68 L4.87 39.31 L16.37 34.54 L21.62 36.17 L18.74 32.17 L5.25 32.17 L10.87 33.3 L0 37.68 L0 37.68 Z"
						class="st4"/>
			</g>
			<g id="shape83-170" v:mID="83" v:groupContext="shape" transform="translate(9.99293,-19.5292)">
				<title>Sheet.83</title>
				<path d="M21.49 33.3 L16.74 31.79 L5.62 36.56 L0 34.93 L2.75 39.31 L16.74 39.31 L10.74 37.8 L21.49 33.3 L21.49 33.3
							 Z" class="st4"/>
			</g>
			<g id="shape84-172" v:mID="84" v:groupContext="shape" transform="translate(9.99293,-19.5292)">
				<title>Sheet.84</title>
				<path d="M21.49 33.3 L16.74 31.79 L5.62 36.56 L0 34.93 L2.75 39.31 L16.74 39.31 L10.74 37.8 L21.49 33.3 L21.49 33.3
							 Z" class="st4"/>
			</g>
			<g id="shape85-174" v:mID="85" v:groupContext="shape" transform="translate(11.1174,-28.6629)">
				<title>Sheet.85</title>
				<path d="M0 33.67 L4.87 32.04 L16.37 36.55 L21.61 35.29 L18.87 39.31 L5.25 39.31 L10.87 38.05 L0 33.67 L0 33.67 Z"
						class="st4"/>
			</g>
			<g id="shape86-176" v:mID="86" v:groupContext="shape" transform="translate(11.1174,-28.6629)">
				<title>Sheet.86</title>
				<path d="M0 33.67 L4.87 32.04 L16.37 36.55 L21.61 35.29 L18.87 39.31 L5.25 39.31 L10.87 38.05 L0 33.67 L0 33.67 Z"
						class="st4"/>
			</g>
			<g id="shape87-178" v:mID="87" v:groupContext="shape" transform="translate(32.73,-19.026)">
				<title>Sheet.87</title>
				<path d="M21.49 37.68 L16.75 39.31 L5.62 34.42 L0 36.05 L2.75 32.04 L16.75 32.04 L10.75 33.3 L21.49 37.68 L21.49
							 37.68 Z" class="st4"/>
			</g>
			<g id="shape88-180" v:mID="88" v:groupContext="shape" transform="translate(32.73,-19.026)">
				<title>Sheet.88</title>
				<path d="M21.49 37.68 L16.75 39.31 L5.62 34.42 L0 36.05 L2.75 32.04 L16.75 32.04 L10.75 33.3 L21.49 37.68 L21.49
							 37.68 Z" class="st4"/>
			</g>
			<g id="shape89-182" v:mID="89" v:groupContext="shape" transform="translate(33.4797,-28.2873)">
				<title>Sheet.89</title>
				<path d="M0 37.68 L4.87 39.31 L16.37 34.54 L21.62 36.17 L18.74 32.17 L5.25 32.17 L10.87 33.3 L0 37.68 L0 37.68 Z"
						class="st4"/>
			</g>
			<g id="shape90-184" v:mID="90" v:groupContext="shape" transform="translate(33.4797,-28.2873)">
				<title>Sheet.90</title>
				<path d="M0 37.68 L4.87 39.31 L16.37 34.54 L21.62 36.17 L18.74 32.17 L5.25 32.17 L10.87 33.3 L0 37.68 L0 37.68 Z"
						class="st4"/>
			</g>
			<g id="shape91-186" v:mID="91" v:groupContext="shape" transform="translate(9.99293,-19.5292)">
				<title>Sheet.91</title>
				<path d="M21.49 33.3 L16.74 31.79 L5.62 36.56 L0 34.93 L2.75 39.31 L16.74 39.31 L10.74 37.8 L21.49 33.3 L21.49 33.3
							 Z" class="st4"/>
			</g>
			<g id="shape92-188" v:mID="92" v:groupContext="shape" transform="translate(9.99293,-19.5292)">
				<title>Sheet.92</title>
				<path d="M21.49 33.3 L16.74 31.79 L5.62 36.56 L0 34.93 L2.75 39.31 L16.74 39.31 L10.74 37.8 L21.49 33.3 L21.49 33.3
							 Z" class="st4"/>
			</g>
			<g id="shape93-190" v:mID="93" v:groupContext="shape" transform="translate(11.1174,-28.6629)">
				<title>Sheet.93</title>
				<path d="M0 33.67 L4.87 32.04 L16.37 36.55 L21.61 35.29 L18.87 39.31 L5.25 39.31 L10.87 38.05 L0 33.67 L0 33.67 Z"
						class="st4"/>
			</g>
			<g id="shape94-192" v:mID="94" v:groupContext="shape" transform="translate(11.1174,-28.6629)">
				<title>Sheet.94</title>
				<path d="M0 33.67 L4.87 32.04 L16.37 36.55 L21.61 35.29 L18.87 39.31 L5.25 39.31 L10.87 38.05 L0 33.67 L0 33.67 Z"
						class="st4"/>
			</g>
			<g id="shape95-194" v:mID="95" v:groupContext="shape" transform="translate(32.73,-19.026)">
				<title>Sheet.95</title>
				<path d="M21.49 37.68 L16.75 39.31 L5.62 34.42 L0 36.05 L2.75 32.04 L16.75 32.04 L10.75 33.3 L21.49 37.68 L21.49
							 37.68 Z" class="st4"/>
			</g>
			<g id="shape96-196" v:mID="96" v:groupContext="shape" transform="translate(32.73,-19.026)">
				<title>Sheet.96</title>
				<path d="M21.49 37.68 L16.75 39.31 L5.62 34.42 L0 36.05 L2.75 32.04 L16.75 32.04 L10.75 33.3 L21.49 37.68 L21.49
							 37.68 Z" class="st4"/>
			</g>
			<g id="shape97-198" v:mID="97" v:groupContext="shape" transform="translate(33.8545,-27.9117)">
				<title>Sheet.97</title>
				<path d="M0 37.8 L4.87 39.31 L16.37 34.54 L21.62 36.17 L18.87 32.17 L5.25 32.17 L10.87 33.3 L0 37.8 L0 37.8 Z"
						class="st5"/>
			</g>
			<g id="shape98-200" v:mID="98" v:groupContext="shape" transform="translate(33.8545,-27.9117)">
				<title>Sheet.98</title>
				<path d="M0 37.8 L4.87 39.31 L16.37 34.54 L21.62 36.17 L18.87 32.17 L5.25 32.17 L10.87 33.3 L0 37.8 L0 37.8 Z"
						class="st5"/>
			</g>
			<g id="shape99-202" v:mID="99" v:groupContext="shape" transform="translate(10.3678,-19.026)">
				<title>Sheet.99</title>
				<path d="M21.61 33.3 L16.74 31.67 L5.62 36.43 L0 34.8 L2.75 39.31 L16.74 39.31 L10.74 37.68 L21.61 33.3 L21.61 33.3
							 Z" class="st5"/>
			</g>
			<g id="shape100-204" v:mID="100" v:groupContext="shape" transform="translate(10.3678,-19.026)">
				<title>Sheet.100</title>
				<path d="M21.61 33.3 L16.74 31.67 L5.62 36.43 L0 34.8 L2.75 39.31 L16.74 39.31 L10.74 37.68 L21.61 33.3 L21.61 33.3
							 Z" class="st5"/>
			</g>
			<g id="shape101-206" v:mID="101" v:groupContext="shape" transform="translate(11.6197,-28.2873)">
				<title>Sheet.101</title>
				<path d="M0 33.67 L4.75 32.17 L16.37 36.55 L21.49 35.29 L18.74 39.31 L5.12 39.31 L10.74 38.18 L0 33.67 L0 33.67 Z"
						class="st5"/>
			</g>
			<g id="shape102-208" v:mID="102" v:groupContext="shape" transform="translate(11.6197,-28.2873)">
				<title>Sheet.102</title>
				<path d="M0 33.67 L4.75 32.17 L16.37 36.55 L21.49 35.29 L18.74 39.31 L5.12 39.31 L10.74 38.18 L0 33.67 L0 33.67 Z"
						class="st5"/>
			</g>
			<g id="shape103-210" v:mID="103" v:groupContext="shape" transform="translate(33.1049,-18.6504)">
				<title>Sheet.103</title>
				<path d="M21.62 37.68 L16.75 39.31 L5.62 34.42 L0 36.05 L2.75 32.04 L16.75 32.04 L10.75 33.3 L21.62 37.68 L21.62
							 37.68 Z" class="st5"/>
			</g>
			<g id="shape104-212" v:mID="104" v:groupContext="shape" transform="translate(33.1049,-18.6504)">
				<title>Sheet.104</title>
				<path d="M21.62 37.68 L16.75 39.31 L5.62 34.42 L0 36.05 L2.75 32.04 L16.75 32.04 L10.75 33.3 L21.62 37.68 L21.62
							 37.68 Z" class="st5"/>
			</g>
			<g id="shape105-214" v:mID="105" v:groupContext="shape" transform="translate(33.8545,-27.9117)">
				<title>Sheet.105</title>
				<path d="M0 37.8 L4.87 39.31 L16.37 34.54 L21.62 36.17 L18.87 32.17 L5.25 32.17 L10.87 33.3 L0 37.8 L0 37.8 Z"
						class="st5"/>
			</g>
			<g id="shape106-216" v:mID="106" v:groupContext="shape" transform="translate(33.8545,-27.9117)">
				<title>Sheet.106</title>
				<path d="M0 37.8 L4.87 39.31 L16.37 34.54 L21.62 36.17 L18.87 32.17 L5.25 32.17 L10.87 33.3 L0 37.8 L0 37.8 Z"
						class="st5"/>
			</g>
			<g id="shape107-218" v:mID="107" v:groupContext="shape" transform="translate(10.3678,-19.026)">
				<title>Sheet.107</title>
				<path d="M21.61 33.3 L16.74 31.67 L5.62 36.43 L0 34.8 L2.75 39.31 L16.74 39.31 L10.74 37.68 L21.61 33.3 L21.61 33.3
							 Z" class="st5"/>
			</g>
			<g id="shape108-220" v:mID="108" v:groupContext="shape" transform="translate(10.3678,-19.026)">
				<title>Sheet.108</title>
				<path d="M21.61 33.3 L16.74 31.67 L5.62 36.43 L0 34.8 L2.75 39.31 L16.74 39.31 L10.74 37.68 L21.61 33.3 L21.61 33.3
							 Z" class="st5"/>
			</g>
			<g id="shape109-222" v:mID="109" v:groupContext="shape" transform="translate(11.6197,-28.2873)">
				<title>Sheet.109</title>
				<path d="M0 33.67 L4.75 32.17 L16.37 36.55 L21.49 35.29 L18.74 39.31 L5.12 39.31 L10.74 38.18 L0 33.67 L0 33.67 Z"
						class="st5"/>
			</g>
			<g id="shape110-224" v:mID="110" v:groupContext="shape" transform="translate(11.6197,-28.2873)">
				<title>Sheet.110</title>
				<path d="M0 33.67 L4.75 32.17 L16.37 36.55 L21.49 35.29 L18.74 39.31 L5.12 39.31 L10.74 38.18 L0 33.67 L0 33.67 Z"
						class="st5"/>
			</g>
			<g id="shape111-226" v:mID="111" v:groupContext="shape" transform="translate(33.1049,-18.6504)">
				<title>Sheet.111</title>
				<path d="M21.62 37.68 L16.75 39.31 L5.62 34.42 L0 36.05 L2.75 32.04 L16.75 32.04 L10.75 33.3 L21.62 37.68 L21.62
							 37.68 Z" class="st5"/>
			</g>
			<g id="shape112-228" v:mID="112" v:groupContext="shape" transform="translate(33.1049,-18.6504)">
				<title>Sheet.112</title>
				<path d="M21.62 37.68 L16.75 39.31 L5.62 34.42 L0 36.05 L2.75 32.04 L16.75 32.04 L10.75 33.3 L21.62 37.68 L21.62
							 37.68 Z" class="st5"/>
			</g>
			<g id="shape113-230" v:mID="113" v:groupContext="shape" transform="translate(-3.9968E-015,-11.5147)">
				<title>Sheet.113</title>
				<path d="M0 23.28 L0.12 39.31" class="st2"/>
			</g>
			<g id="shape114-233" v:mID="114" v:groupContext="shape" transform="translate(65.4676,-11.5147)">
				<title>Sheet.114</title>
				<path d="M0 23.28 L0.13 39.31" class="st2"/>
			</g>
		</g>
	</g>
</svg>
