<?xml version="1.0" encoding="UTF-8" standalone="no"?>
<!DOCTYPE svg PUBLIC "-//W3C//DTD SVG 1.0//EN" "http://www.w3.org/TR/2001/REC-SVG-20010904/DTD/svg10.dtd">
<!-- Generated by Microsoft Visio 11.0, SVG Export, v1.0 Switch.svg Page-1 -->
<svg xmlns="http://www.w3.org/2000/svg" xmlns:xlink="http://www.w3.org/1999/xlink" xmlns:ev="http://www.w3.org/2001/xml-events"
		xmlns:v="http://schemas.microsoft.com/visio/2003/SVGExtensions/" width="1.96791in" height="0.84597in"
		viewBox="0 0 141.69 60.9098" xml:space="preserve" color-interpolation-filters="sRGB" class="st7">
	<v:documentProperties v:langID="1033" v:metric="true" v:viewMarkup="false"/>

	<style type="text/css">
	<![CDATA[
		.st1 {fill:#1c96cc;stroke:none;stroke-linecap:round;stroke-linejoin:round;stroke-width:0.75}
		.st2 {fill:#add7e7;stroke:none;stroke-linecap:round;stroke-linejoin:round;stroke-width:0.75}
		.st3 {fill:#075f87;stroke:none;stroke-linecap:round;stroke-linejoin:round;stroke-width:0.75}
		.st4 {fill:#3cafe5;stroke:none;stroke-linecap:round;stroke-linejoin:round;stroke-width:0.75}
		.st5 {fill:#131516;stroke:none;stroke-linecap:round;stroke-linejoin:round;stroke-width:0.75}
		.st6 {fill:#ffffff;stroke:none;stroke-linecap:round;stroke-linejoin:round;stroke-width:0.75}
		.st7 {fill:none;fill-rule:evenodd;font-size:12px;overflow:visible;stroke-linecap:square;stroke-miterlimit:3}
	]]>
	</style>

	<g v:mID="0" v:index="1" v:groupContext="foregroundPage">
		<title>Page-1</title>
		<v:pageProperties v:drawingScale="0.0393701" v:pageScale="0.0393701" v:drawingUnits="24" v:shadowOffsetX="8.50394"
				v:shadowOffsetY="-8.50394"/>
		<g id="group5-1" v:mID="5" v:groupContext="group">
			<title>Sheet.5</title>
			<g id="shape6-2" v:mID="6" v:groupContext="shape" transform="translate(0.487058,-0.488059)">
				<title>Sheet.6</title>
				<path d="M0 33.89 L0 60.91 L107.87 60.91 L107.87 33.89 L0 33.89 L0 33.89 Z" class="st1"/>
			</g>
			<g id="shape7-4" v:mID="7" v:groupContext="shape">
				<title>Sheet.7</title>
				<path d="M0.49 60.91 L0.98 60.42 L0.98 33.4 L0 33.4 L0 60.42 L0.49 60.91 L0.49 60.91 Z" class="st2"/>
			</g>
			<g id="shape8-6" v:mID="8" v:groupContext="shape" transform="translate(0.487058,0)">
				<title>Sheet.8</title>
				<path d="M108.36 60.42 L107.87 59.92 L0 59.92 L0 60.91 L107.87 60.91 L108.36 60.42 L108.36 60.42 Z" class="st2"/>
			</g>
			<g id="shape9-8" v:mID="9" v:groupContext="shape" transform="translate(107.87,-0.488059)">
				<title>Sheet.9</title>
				<path d="M0.49 33.4 L0 33.89 L0 60.91 L0.97 60.91 L0.97 33.89 L0.49 33.4 L0.49 33.4 Z" class="st2"/>
			</g>
			<g id="shape10-10" v:mID="10" v:groupContext="shape" transform="translate(2.39808E-014,-27.0207)">
				<title>Sheet.10</title>
				<path d="M0 60.42 L0.49 60.91 L108.36 60.91 L108.36 59.93 L0.49 59.93 L0 60.42 L0 60.42 Z" class="st2"/>
			</g>
			<g id="shape11-12" v:mID="11" v:groupContext="shape" transform="translate(108.357,-0.488059)">
				<title>Sheet.11</title>
				<path d="M0 33.89 L32.85 0.98 L32.85 28.02 L0 60.91 L0 33.89 L0 33.89 Z" class="st3"/>
			</g>
			<g id="shape12-14" v:mID="12" v:groupContext="shape" transform="translate(108.012,-27.1627)">
				<title>Sheet.12</title>
				<path d="M33.68 27.65 L32.85 27.3 L0 60.22 L0.69 60.91 L33.54 28 L33.68 27.65 L33.68 27.65 Z" class="st2"/>
			</g>
			<g id="shape13-16" v:mID="13" v:groupContext="shape" transform="translate(140.707,-33.0283)">
				<title>Sheet.13</title>
				<path d="M0.84 60.91 L0.98 60.56 L0.98 33.52 L0 33.52 L0 60.56 L0.84 60.91 L0.84 60.91 Z" class="st2"/>
			</g>
			<g id="shape14-18" v:mID="14" v:groupContext="shape" transform="translate(107.87,-0.141981)">
				<title>Sheet.14</title>
				<path d="M0 60.56 L0.83 60.91 L33.68 28.02 L32.99 27.33 L0.14 60.22 L0 60.56 L0 60.56 Z" class="st2"/>
			</g>
			<g id="shape15-20" v:mID="15" v:groupContext="shape" transform="translate(107.87,-0.488059)">
				<title>Sheet.15</title>
				<path d="M0.14 33.54 L0 33.89 L0 60.91 L0.97 60.91 L0.97 33.89 L0.14 33.54 L0.14 33.54 Z" class="st2"/>
			</g>
			<g id="shape16-22" v:mID="16" v:groupContext="shape" transform="translate(0.487058,-27.5088)">
				<title>Sheet.16</title>
				<path d="M107.87 60.91 L140.72 28 L32.85 28 L0 60.91 L107.87 60.91 L107.87 60.91 Z" class="st4"/>
			</g>
			<g id="shape17-24" v:mID="17" v:groupContext="shape" transform="translate(108.012,-27.1627)">
				<title>Sheet.17</title>
				<path d="M33.19 27.16 L32.85 27.3 L0 60.22 L0.69 60.91 L33.54 28 L33.19 27.16 L33.19 27.16 Z" class="st2"/>
			</g>
			<g id="shape18-26" v:mID="18" v:groupContext="shape" transform="translate(32.9871,-59.9248)">
				<title>Sheet.18</title>
				<path d="M0 60.07 L0.35 60.91 L108.22 60.91 L108.22 59.92 L0.35 59.92 L0 60.07 L0 60.07 Z" class="st2"/>
			</g>
			<g id="shape19-28" v:mID="19" v:groupContext="shape" transform="translate(0.14169,-27.0207)">
				<title>Sheet.19</title>
				<path d="M0.35 60.91 L0.69 60.77 L33.54 27.85 L32.85 27.16 L0 60.08 L0.35 60.91 L0.35 60.91 Z" class="st2"/>
			</g>
			<g id="shape20-30" v:mID="20" v:groupContext="shape" transform="translate(0.487058,-27.0207)">
				<title>Sheet.20</title>
				<path d="M108.22 60.77 L107.87 59.93 L0 59.93 L0 60.91 L107.87 60.91 L108.22 60.77 L108.22 60.77 Z" class="st2"/>
			</g>
			<g id="shape21-32" v:mID="21" v:groupContext="shape" transform="translate(63.4415,-35.087)">
				<title>Sheet.21</title>
				<path d="M3.91 52.27 L0 56.15 L28.08 56.13 L23.31 60.91 L46.1 54.48 L34.11 49.76 L31.56 52.28 L3.91 52.27 L3.91 52.27
							 Z" class="st5"/>
			</g>
			<g id="shape22-34" v:mID="22" v:groupContext="shape" transform="translate(76.9197,-48.593)">
				<title>Sheet.22</title>
				<path d="M3.91 52.27 L0 56.15 L28.08 56.13 L23.31 60.91 L46.1 54.48 L34.11 49.76 L31.56 52.27 L3.91 52.27 L3.91 52.27
							 Z" class="st5"/>
			</g>
			<g id="shape23-36" v:mID="23" v:groupContext="shape" transform="translate(15.1608,-31.1559)">
				<title>Sheet.23</title>
				<path d="M42.19 58.41 L46.1 54.52 L18.02 54.55 L22.79 49.76 L0 56.2 L11.99 60.91 L14.54 58.4 L42.19 58.41 L42.19
							 58.41 Z" class="st5"/>
			</g>
			<g id="shape24-38" v:mID="24" v:groupContext="shape" transform="translate(28.639,-44.6619)">
				<title>Sheet.24</title>
				<path d="M42.2 58.4 L46.1 54.52 L18.02 54.55 L22.79 49.76 L0 56.19 L12 60.91 L14.54 58.4 L42.2 58.4 L42.2 58.4 Z"
						class="st5"/>
			</g>
			<g id="shape25-40" v:mID="25" v:groupContext="shape" transform="translate(64.4245,-34.102)">
				<title>Sheet.25</title>
				<path d="M3.91 52.27 L0 56.15 L28.08 56.13 L23.31 60.91 L46.09 54.48 L34.1 49.76 L31.56 52.27 L3.91 52.27 L3.91 52.27
							 Z" class="st6"/>
			</g>
			<g id="shape26-42" v:mID="26" v:groupContext="shape" transform="translate(77.9027,-47.608)">
				<title>Sheet.26</title>
				<path d="M3.91 52.27 L0 56.14 L28.08 56.12 L23.31 60.91 L46.1 54.48 L34.1 49.76 L31.56 52.27 L3.91 52.27 L3.91 52.27
							 Z" class="st6"/>
			</g>
			<g id="shape27-44" v:mID="27" v:groupContext="shape" transform="translate(16.1438,-30.1709)">
				<title>Sheet.27</title>
				<path d="M42.19 58.4 L46.09 54.52 L18.02 54.55 L22.79 49.76 L0 56.19 L11.99 60.91 L14.53 58.4 L42.19 58.4 L42.19
							 58.4 Z" class="st6"/>
			</g>
			<g id="shape28-46" v:mID="28" v:groupContext="shape" transform="translate(29.622,-43.6858)">
				<title>Sheet.28</title>
				<path d="M42.19 58.41 L46.09 54.52 L18.02 54.55 L22.79 49.76 L0 56.2 L11.99 60.91 L14.53 58.41 L42.19 58.41 L42.19
							 58.41 Z" class="st6"/>
			</g>
		</g>
	</g>
</svg>
